<svg xmlns="http://www.w3.org/2000/svg" xmlns:svgjs="http://svgjs.dev/svgjs" xmlns:xlink="http://www.w3.org/1999/xlink" width="128" height="128" version="1.1" viewBox="0 0 128 128"><g transform="matrix(0.8046875,0,0,0.8046875,12.333870967741937,35.16944594505964)"><svg xmlns="http://www.w3.org/2000/svg" xmlns:xlink="http://www.w3.org/1999/xlink" width="128" height="72" data-background-color="#ffffff" preserveAspectRatio="xMidYMid meet" viewBox="0 0 155 88"><g id="tight-bounds" transform="matrix(1,0,0,1,0.25,-0.20990279465370065)"><svg width="154.5" height="88.42" viewBox="0 0 154.5 88.42"><g><svg width="154.5" height="88.42" viewBox="0 0 154.5 88.42"><g><svg width="154.5" height="88.42" viewBox="0 0 154.5 88.42"><g id="textblocktransform"><svg id="textblock" width="154.5" height="88.42" viewBox="0 0 154.5 88.42"><g><svg width="154.5" height="88.42" viewBox="0 0 154.5 88.42"><g transform="matrix(1,0,0,1,0,0)"><svg width="154.5" height="88.42" data-palette-color="#6b7280" viewBox="2.5 -23.3 41.15 23.55"><path id="text-0" fill="#6b7280" d="M5.95 0.25Q4.05 0.25 3.28-1.75 2.5-3.75 2.5-8.15L2.5-8.15Q2.5-14.65 4.35-20.5L4.35-20.5Q4.8-21.95 5.83-22.63 6.85-23.3 8.7-23.3L8.7-23.3Q9.7-23.3 10.1-23.05 10.5-22.8 10.5-22.1L10.5-22.1Q10.5-21.3 9.75-18.5L9.75-18.5Q9.25-16.5 8.95-15.03 8.65-13.55 8.45-11.35L8.45-11.35Q9.8-15.25 11.68-17.95 13.55-20.65 15.53-21.98 17.5-23.3 19.25-23.3L19.25-23.3Q21-23.3 21.73-22.5 22.45-21.7 22.45-20.05L22.45-20.05Q22.45-18.45 21.5-14.25L21.5-14.25Q21.1-12.45 20.95-11.55L20.95-11.55Q23.45-17.7 26.5-20.5 29.55-23.3 32.2-23.3L32.2-23.3Q35.45-23.3 35.45-20.05L35.45-20.05Q35.45-18.1 34.35-13L34.35-13Q33.4-8.65 33.4-7.25L33.4-7.25Q33.4-5.25 34.85-5.25L34.85-5.25Q35.85-5.25 37.23-6.48 38.6-7.7 40.9-10.45L40.9-10.45Q41.5-11.15 42.25-11.15L42.25-11.15Q42.9-11.15 43.28-10.55 43.65-9.95 43.65-8.9L43.65-8.9Q43.65-6.9 42.7-5.8L42.7-5.8Q40.55-3.15 38.08-1.45 35.6 0.25 32.45 0.25L32.45 0.25Q29.9 0.25 28.6-1.23 27.3-2.7 27.3-5.5L27.3-5.5Q27.3-6.9 28-10.5L28-10.5Q28.65-13.65 28.65-14.85L28.65-14.85Q28.65-15.65 28.1-15.65L28.1-15.65Q27.45-15.65 26.25-13.98 25.05-12.3 23.85-9.55 22.65-6.8 21.9-3.75L21.9-3.75Q21.35-1.35 20.63-0.55 19.9 0.25 18.3 0.25L18.3 0.25Q16.65 0.25 15.83-1.33 15-2.9 15-5.15L15-5.15Q15-7.05 15.5-10.65L15.5-10.65Q15.9-13.85 15.9-14.85L15.9-14.85Q15.9-15.65 15.35-15.65L15.35-15.65Q14.6-15.65 13.45-13.85 12.3-12.05 11.23-9.25 10.15-6.45 9.5-3.75L9.5-3.75Q8.95-1.4 8.22-0.58 7.5 0.25 5.95 0.25L5.95 0.25Z" class="wordmark-text-0" data-fill-palette-color="primary" opacity="1" transform="matrix(1,0,0,1,0,0)"/></svg></g></svg></g></svg></g></svg></g></svg></g></svg><rect width="154.5" height="88.42" fill="none" stroke="none" visibility="hidden"/></g></svg></g></svg>