<svg xmlns="http://www.w3.org/2000/svg" xmlns:xlink="http://www.w3.org/1999/xlink" id="visual" width="300" height="500" version="1.1" viewBox="0 0 300 500"><rect width="300" height="500" x="0" y="0" fill="#F06"/><g><path fill="#BB004B" d="M78.5 -96.9C101.1 -91.8 118.1 -67.8 124.3 -41.9C130.6 -16.1 126.2 11.7 112.7 31.5C99.2 51.2 76.6 62.8 56.3 79.2C36.1 95.6 18 116.8 -3.6 121.8C-25.3 126.8 -50.5 115.6 -68.8 98.5C-87 81.4 -98.2 58.5 -109 33.5C-119.8 8.4 -130.3 -18.6 -126.8 -44.8C-123.2 -70.9 -105.7 -96.1 -82.2 -101C-58.8 -105.9 -29.4 -90.5 -0.7 -89.5C28 -88.6 56 -102.1 78.5 -96.9" transform="translate(150.18078578682267 239.48087168312236)"/></g></svg>