<svg xmlns="http://www.w3.org/2000/svg" version="1.1" xmlns:xlink="http://www.w3.org/1999/xlink" xmlns:svgjs="http://svgjs.dev/svgjs" width="2000" height="595" viewBox="0 0 2000 595"><g transform="matrix(1,0,0,1,-1.2121212121212466,0.10788332676395385)"><svg viewBox="0 0 396 118" data-background-color="#ffffff" preserveAspectRatio="xMidYMid meet" height="595" width="2000" xmlns="http://www.w3.org/2000/svg" xmlns:xlink="http://www.w3.org/1999/xlink"><g id="tight-bounds" transform="matrix(1,0,0,1,0.2400000000000091,-0.021395348837216943)"><svg viewBox="0 0 395.52 118.0427906976744" height="118.0427906976744" width="395.52"><g><svg viewBox="0 0 395.52 118.0427906976744" height="118.0427906976744" width="395.52"><g><svg viewBox="0 0 395.52 118.0427906976744" height="118.0427906976744" width="395.52"><g id="textblocktransform"><svg viewBox="0 0 395.52 118.0427906976744" height="118.0427906976744" width="395.52" id="textblock"><g><svg viewBox="0 0 395.52 118.0427906976744" height="118.0427906976744" width="395.52"><g transform="matrix(1,0,0,1,0,0)"><svg width="395.52" viewBox="2.5 -34.4 116.09 34.65" height="118.0427906976744" data-palette-color="#6b7280"><path d="M5.95 0.25Q4.05 0.25 3.28-1.75 2.5-3.75 2.5-8.15L2.5-8.15Q2.5-14.65 4.35-20.5L4.35-20.5Q4.8-21.95 5.83-22.63 6.85-23.3 8.7-23.3L8.7-23.3Q9.7-23.3 10.1-23.05 10.5-22.8 10.5-22.1L10.5-22.1Q10.5-21.3 9.75-18.5L9.75-18.5Q9.25-16.5 8.95-15.03 8.65-13.55 8.45-11.35L8.45-11.35Q9.8-15.25 11.68-17.95 13.55-20.65 15.53-21.98 17.5-23.3 19.25-23.3L19.25-23.3Q21-23.3 21.73-22.5 22.45-21.7 22.45-20.05L22.45-20.05Q22.45-18.45 21.5-14.25L21.5-14.25Q21.1-12.45 20.95-11.55L20.95-11.55Q23.45-17.7 26.5-20.5 29.55-23.3 32.2-23.3L32.2-23.3Q35.45-23.3 35.45-20.05L35.45-20.05Q35.45-18.1 34.35-13L34.35-13Q33.4-8.65 33.4-7.25L33.4-7.25Q33.4-5.25 34.85-5.25L34.85-5.25Q35.85-5.25 37.23-6.48 38.6-7.7 40.9-10.45L40.9-10.45Q41.5-11.15 42.25-11.15L42.25-11.15Q42.9-11.15 43.28-10.55 43.65-9.95 43.65-8.9L43.65-8.9Q43.65-6.9 42.7-5.8L42.7-5.8Q40.55-3.15 38.08-1.45 35.6 0.25 32.45 0.25L32.45 0.25Q29.9 0.25 28.6-1.23 27.3-2.7 27.3-5.5L27.3-5.5Q27.3-6.9 28-10.5L28-10.5Q28.65-13.65 28.65-14.85L28.65-14.85Q28.65-15.65 28.1-15.65L28.1-15.65Q27.45-15.65 26.25-13.98 25.05-12.3 23.85-9.55 22.65-6.8 21.9-3.75L21.9-3.75Q21.35-1.35 20.63-0.55 19.9 0.25 18.3 0.25L18.3 0.25Q16.65 0.25 15.83-1.33 15-2.9 15-5.15L15-5.15Q15-7.05 15.5-10.65L15.5-10.65Q15.9-13.85 15.9-14.85L15.9-14.85Q15.9-15.65 15.35-15.65L15.35-15.65Q14.6-15.65 13.45-13.85 12.3-12.05 11.23-9.25 10.15-6.45 9.5-3.75L9.5-3.75Q8.95-1.4 8.22-0.58 7.5 0.25 5.95 0.25L5.95 0.25ZM61.9-11.15Q62.55-11.15 62.92-10.55 63.3-9.95 63.3-8.9L63.3-8.9Q63.3-6.9 62.35-5.8L62.35-5.8Q60.5-3.55 57.12-1.65 53.75 0.25 49.9 0.25L49.9 0.25Q44.65 0.25 41.75-2.6 38.85-5.45 38.85-10.4L38.85-10.4Q38.85-13.85 40.3-16.82 41.75-19.8 44.32-21.55 46.9-23.3 50.15-23.3L50.15-23.3Q53.05-23.3 54.8-21.58 56.55-19.85 56.55-16.9L56.55-16.9Q56.55-13.45 54.07-10.98 51.6-8.5 45.7-7.05L45.7-7.05Q46.95-4.75 50.45-4.75L50.45-4.75Q52.7-4.75 55.57-6.33 58.45-7.9 60.55-10.45L60.55-10.45Q61.15-11.15 61.9-11.15L61.9-11.15ZM49.3-18.4Q47.45-18.4 46.17-16.25 44.9-14.1 44.9-11.05L44.9-11.05 44.9-10.95Q47.85-11.65 49.55-13.05 51.25-14.45 51.25-16.3L51.25-16.3Q51.25-17.25 50.72-17.82 50.2-18.4 49.3-18.4L49.3-18.4ZM65.8-26.6Q63.7-26.6 62.65-27.58 61.6-28.55 61.6-30.3L61.6-30.3Q61.6-32.05 62.97-33.23 64.35-34.4 66.4-34.4L66.4-34.4Q68.25-34.4 69.4-33.5 70.55-32.6 70.55-30.95L70.55-30.95Q70.55-28.95 69.25-27.78 67.95-26.6 65.8-26.6L65.8-26.6ZM65.4 0.25Q62.15 0.25 60.67-2.05 59.2-4.35 59.2-8.15L59.2-8.15Q59.2-10.4 59.77-13.93 60.35-17.45 61.25-20.5L61.25-20.5Q61.7-22.1 62.45-22.7 63.2-23.3 64.85-23.3L64.85-23.3Q67.4-23.3 67.4-21.6L67.4-21.6Q67.4-20.35 66.45-15.8L66.45-15.8Q65.25-10.3 65.25-8.35L65.25-8.35Q65.25-6.85 65.65-6.05 66.05-5.25 67-5.25L67-5.25Q67.9-5.25 69.25-6.5 70.6-7.75 72.85-10.45L72.85-10.45Q73.45-11.15 74.2-11.15L74.2-11.15Q74.85-11.15 75.22-10.55 75.6-9.95 75.6-8.9L75.6-8.9Q75.6-6.9 74.65-5.8L74.65-5.8Q69.7 0.25 65.4 0.25L65.4 0.25ZM93.84-11.15Q94.49-11.15 94.87-10.55 95.24-9.95 95.24-8.9L95.24-8.9Q95.24-6.9 94.29-5.8L94.29-5.8Q92.44-3.55 89.07-1.65 85.69 0.25 81.84 0.25L81.84 0.25Q76.59 0.25 73.69-2.6 70.79-5.45 70.79-10.4L70.79-10.4Q70.79-13.85 72.24-16.82 73.69-19.8 76.27-21.55 78.84-23.3 82.09-23.3L82.09-23.3Q84.99-23.3 86.74-21.58 88.49-19.85 88.49-16.9L88.49-16.9Q88.49-13.45 86.02-10.98 83.54-8.5 77.64-7.05L77.64-7.05Q78.89-4.75 82.39-4.75L82.39-4.75Q84.64-4.75 87.52-6.33 90.39-7.9 92.49-10.45L92.49-10.45Q93.09-11.15 93.84-11.15L93.84-11.15ZM81.24-18.4Q79.39-18.4 78.12-16.25 76.84-14.1 76.84-11.05L76.84-11.05 76.84-10.95Q79.79-11.65 81.49-13.05 83.19-14.45 83.19-16.3L83.19-16.3Q83.19-17.25 82.67-17.82 82.14-18.4 81.24-18.4L81.24-18.4ZM94.74 0.25Q92.84 0.25 92.07-1.75 91.29-3.75 91.29-8.15L91.29-8.15Q91.29-14.65 93.14-20.5L93.14-20.5Q93.59-21.95 94.62-22.63 95.64-23.3 97.49-23.3L97.49-23.3Q98.49-23.3 98.89-23.05 99.29-22.8 99.29-22.1L99.29-22.1Q99.29-21.3 98.54-18.5L98.54-18.5Q98.04-16.5 97.74-15 97.44-13.5 97.24-11.3L97.24-11.3Q98.89-15.6 100.94-18.3 102.99-21 104.97-22.15 106.94-23.3 108.59-23.3L108.59-23.3Q111.84-23.3 111.84-20.05L111.84-20.05Q111.84-19.4 111.39-16.9L111.39-16.9Q110.99-14.9 110.99-14.4L110.99-14.4Q110.99-12.65 112.24-12.65L112.24-12.65Q113.64-12.65 115.84-14.85L115.84-14.85Q116.49-15.5 117.19-15.5L117.19-15.5Q117.84-15.5 118.22-14.93 118.59-14.35 118.59-13.4L118.59-13.4Q118.59-11.55 117.59-10.5L117.59-10.5Q116.19-9.05 114.32-8.03 112.44-7 110.34-7L110.34-7Q107.69-7 106.32-8.35 104.94-9.7 104.94-12L104.94-12Q104.94-12.75 105.09-13.5L105.09-13.5Q105.19-14.5 105.19-14.85L105.19-14.85Q105.19-15.65 104.64-15.65L104.64-15.65Q103.89-15.65 102.67-13.98 101.44-12.3 100.24-9.55 99.04-6.8 98.29-3.75L98.29-3.75Q97.74-1.4 97.02-0.58 96.29 0.25 94.74 0.25L94.74 0.25Z" opacity="1" transform="matrix(1,0,0,1,0,0)" fill="#6b7280" class="wordmark-text-0" data-fill-palette-color="primary" id="text-0"></path></svg></g></svg></g></svg></g></svg></g></svg></g><defs></defs></svg><rect width="395.52" height="118.0427906976744" fill="none" stroke="none" visibility="hidden"></rect></g></svg></g></svg>